# Alias OBJ Model File
# Exported from SketchUp, (c) 2000-2012 Trimble Navigation Limited
# File units = inches

mtllib wall-flat.mtl

g Mesh1 Model

usemtl FrontColor
v 0.499923 0 -1.1875
vt -0.499923 1.1875
vn 0 -1 -0
v 0.437346 0 -0.875
vt -0.437346 0.875
v 0.437346 0 -1.125
vt -0.437346 1.125
f 1/1/1 2/2/1 3/3/1

v 0.499923 0 -0.8125
vt -0.499923 0.8125
f 2/2/1 1/1/1 4/4/1

v 0.5625 0 -0.875
vt -0.5625 0.875
f 4/4/1 1/1/1 5/5/1

v 0.5625 0 -1.125
vt -0.5625 1.125
f 5/5/1 1/1/1 6/6/1

