# file generated by UVMapper
# NumVerts/NumTVerts/NumVNormals/NumFacets   8/24/6/12
# NumGroups/NumMaterials/NumRegions   1/1/0
# x/y/color/ppu   1024/965/0/100.00000000

v  1.04686999  0.00000000 -1.00000000
v -0.00000000  0.00000000 -0.98437500
v -0.00000000  0.00000000 -1.00000000
v  1.04686999  0.00000000 -0.98437500
v  1.04686999  2.00000000 -0.98437500
v  1.04686999  2.00000000 -1.00000000
v -0.00000000  2.00000000 -1.00000000
v -0.00000000  2.00000000 -0.98437500

vt  0.05285920  0.06399097
vt  0.05285920  0.07762945
vt  0.49000001  0.06399097
vt  0.49000001  0.07762945
vt  0.47676116  0.93636155
vt  0.47676116  0.06363848
vt  0.48962039  0.06363848
vt  0.48962039  0.93636155
vt  0.05331725  0.06363848
vt  0.49045807  0.93636155
vt  0.05331725  0.93636155
vt  0.49045807  0.06363848
vt  0.05323834  0.93636155
vt  0.05323834  0.06363848
vt  0.06609752  0.06363848
vt  0.06609752  0.93636155
vt  0.05285920  0.06363848
vt  0.49000001  0.93636155
vt  0.05285920  0.93636155
vt  0.49000001  0.06363848
vt  0.49000001  0.92237073
vt  0.05285920  0.93600917
vt  0.05285920  0.92237073
vt  0.49000001  0.93600917

vn  0.00000000 -1.00000000 -0.00000000
vn  1.00000000  0.00000000 -0.00000000
vn  0.00000000  0.00000000 -1.00000000
vn -1.00000000  0.00000000 -0.00000000
vn  0.00000000  0.00000000  1.00000000
vn  0.00000000  1.00000000 -0.00000000

g Mesh1 Model
usemtl FrontColor
f 1/3/1 2/2/1 3/1/1
f 2/2/1 1/3/1 4/4/1
f 1/7/2 5/5/2 4/6/2
f 5/5/2 1/7/2 6/8/2
f 1/9/3 7/10/3 6/11/3
f 7/10/3 1/9/3 3/12/3
f 2/15/4 7/13/4 3/14/4
f 7/13/4 2/15/4 8/16/4
f 2/17/5 5/18/5 8/19/5
f 5/18/5 2/17/5 4/20/5
f 5/21/6 7/22/6 8/23/6
f 7/22/6 5/21/6 6/24/6
