# file generated by UVMapper
# NumVerts/NumTVerts/NumVNormals/NumFacets   8/24/6/12
# NumGroups/NumMaterials/NumRegions   1/1/0
# x/y/color/ppu   1024/1024/0/50.00000000

v  1.00000000  0.00000000 -1.01563001
v  0.00000000  0.00000000 -0.98437500
v  0.00000000  0.00000000 -1.01563001
v  1.00000000  0.00000000 -0.98437500
v  1.00000000  2.00000000 -0.98437500
v  1.00000000  2.00000000 -1.01563001
v  0.00000000  2.00000000 -1.01563001
v  0.00000000  2.00000000 -0.98437500

vt  0.49000001  0.06423863
vt  0.05363848  0.06423863
vt  0.05363848  0.07787711
vt  0.49000001  0.07787711
vt  0.49052572  0.06363848
vt  0.47688723  0.06363848
vt  0.47688723  0.93636155
vt  0.49052572  0.93636155
vt  0.05413568  0.06364088
vt  0.05413568  0.93636405
vt  0.49049723  0.93636405
vt  0.49049723  0.06364088
vt  0.06785478  0.06363848
vt  0.05421632  0.93636155
vt  0.05421632  0.06363848
vt  0.06785478  0.93636155
vt  0.49000001  0.93636155
vt  0.05363848  0.93636155
vt  0.05363848  0.06363848
vt  0.49000001  0.06363848
vt  0.05363848  0.93576235
vt  0.05363848  0.92212391
vt  0.49000001  0.92212391
vt  0.49000001  0.93576235

vn  0.00000000 -1.00000000 -0.00000000
vn  1.00000000  0.00000000 -0.00000000
vn  0.00000000  0.00000000 -1.00000000
vn -1.00000000  0.00000000 -0.00000000
vn  0.00000000  0.00000000  1.00000000
vn  0.00000000  1.00000000 -0.00000000

g Mesh1 Model
usemtl FrontColor
f 1/1/1 2/3/1 3/2/1
f 2/3/1 1/1/1 4/4/1
f 1/5/2 5/7/2 4/6/2
f 5/7/2 1/5/2 6/8/2
f 1/9/3 7/11/3 6/10/3
f 7/11/3 1/9/3 3/12/3
f 2/13/4 7/14/4 3/15/4
f 7/14/4 2/13/4 8/16/4
f 2/19/5 5/17/5 8/18/5
f 5/17/5 2/19/5 4/20/5
f 5/23/6 7/21/6 8/22/6
f 7/21/6 5/23/6 6/24/6
