# Alias OBJ Model File
# Exported from SketchUp, (c) 2000-2012 Trimble Navigation Limited
# File units = inches

mtllib wall-flat1.mtl

g Mesh1 Model

usemtl FrontColor
v 0.625 0 -0.625
vt -0.625 0.625
vn 0 -1 -0
v 0.375 0 -0.375
vt -0.375 0.375
v 0.375 0 -0.625
vt -0.375 0.625
f 1/1/1 2/2/1 3/3/1

v 0.625 0 -0.375
vt -0.625 0.375
f 2/2/1 1/1/1 4/4/1

vt 0.625 0
vn 1 0 -0
v 0.625 0.03125 -0.375
vt 0.375 0.03125
vt 0.375 0
f 1/5/2 5/6/2 4/7/2

v 0.625 0.03125 -0.625
vt 0.625 0.03125
f 5/6/2 1/5/2 6/8/2

vt -0.625 0
vn 0 0 -1
v 0.375 0.03125 -0.625
vt -0.375 0.03125
vt -0.625 0.03125
f 1/9/3 7/10/3 6/11/3

vt -0.375 0
f 7/10/3 1/9/3 3/12/3

vn -1 0 -0
f 2/12/4 7/11/4 3/9/4

v 0.375 0.03125 -0.375
f 7/11/4 2/12/4 8/10/4

vn 0 0 1
f 2/7/5 5/8/5 8/6/5

f 5/8/5 2/7/5 4/5/5

vt 0.625 0.375
vn 0 1 -0
vt 0.375 0.625
vt 0.375 0.375
f 5/13/6 7/14/6 8/15/6

vt 0.625 0.625
f 7/14/6 5/13/6 6/16/6

